<svg width="16" height="16" viewBox="0 0 16 16" fill="none" xmlns="http://www.w3.org/2000/svg">
<path d="M2.22266 6C2.22266 5.05719 2.22266 4.58579 2.51555 4.29289C2.80844 4 3.27985 4 4.22266 4H11.7782C12.721 4 13.1924 4 13.4853 4.29289C13.7782 4.58579 13.7782 5.05719 13.7782 6V10.4444C13.7782 11.3873 13.7782 11.8587 13.4853 12.1516C13.1924 12.4444 12.721 12.4444 11.7782 12.4444H4.22266C3.27985 12.4444 2.80844 12.4444 2.51555 12.1516C2.22266 11.8587 2.22266 11.3873 2.22266 10.4444V6Z" stroke="currentColor"/>
<path d="M3.02246 4.26758L5.60024 6.20091C6.75579 7.06758 7.33357 7.50091 8.00024 7.50091C8.66691 7.50091 9.24468 7.06758 10.4002 6.20091L12.978 4.26758" stroke="currentColor"/>
</svg>
