<svg width="16" height="16" viewBox="0 0 16 16" fill="none" xmlns="http://www.w3.org/2000/svg">
<path d="M6.3708 12.4206C3.40784 13.2439 3.40784 10.774 2.22266 10.774M10.519 13.7782L10.519 11.6395C10.5333 11.4708 10.5215 11.3011 10.4857 11.1361C10.3954 10.7194 10.6148 10.1318 11.0293 10.0321C12.5013 9.67777 13.7782 8.78648 13.7782 6.36486C13.7781 5.81759 13.6158 5.28531 13.3152 4.82357C13.0937 4.48337 13.0072 4.0617 13.0584 3.65899C13.1001 3.33011 13.0783 2.9963 12.9932 2.67356C12.9182 2.38888 12.6652 2.20111 12.3749 2.24989C12.0569 2.3033 11.5674 2.45193 10.8846 2.83374C10.6482 2.96592 10.3712 3.00957 10.1056 2.95687C9.0109 2.73968 7.87886 2.73968 6.78419 2.95687C6.51855 3.00957 6.24154 2.96592 6.00516 2.83374C5.32235 2.45193 4.83285 2.3033 4.51489 2.24989C4.22455 2.20111 3.97158 2.38888 3.89654 2.67356C3.81146 2.9963 3.78961 3.3301 3.8314 3.65898C3.88258 4.06169 3.79606 4.48336 3.57458 4.82357C3.2709 5.29002 3.10837 5.82839 3.11155 6.38133C3.11155 8.79539 4.39929 9.68059 5.87912 10.0429C6.29044 10.1436 6.50206 10.7228 6.40861 11.1358C6.3713 11.3008 6.35797 11.4705 6.3708 11.6395L6.37081 13.7782" stroke="currentColor" stroke-linecap="round" stroke-linejoin="round"/>
</svg>
