<svg width="21" height="20" viewBox="0 0 21 20" fill="none" xmlns="http://www.w3.org/2000/svg">
<path d="M19.2511 10.1944C19.2511 9.47495 19.1915 8.94995 19.0626 8.40552H10.6797V11.6527H15.6003C15.5011 12.4597 14.9654 13.675 13.7749 14.4916L13.7582 14.6003L16.4087 16.6126L16.5924 16.6305C18.2788 15.1041 19.2511 12.8583 19.2511 10.1944Z" fill="#4285F4"/>
<path d="M10.6793 18.75C13.09 18.75 15.1138 17.9722 16.592 16.6305L13.7745 14.4916C13.0206 15.0068 12.0086 15.3666 10.6793 15.3666C8.31822 15.3666 6.31427 13.8402 5.59992 11.7305L5.49522 11.7392L2.73917 13.8295L2.70312 13.9277C4.17136 16.786 7.18723 18.75 10.6793 18.75Z" fill="#34A853"/>
<path d="M5.59916 11.7307C5.41068 11.1863 5.30159 10.6029 5.30159 10.0002C5.30159 9.39735 5.41068 8.81403 5.58925 8.2696L5.58425 8.15365L2.79366 6.02979L2.70236 6.07235C2.09723 7.25847 1.75 8.59044 1.75 10.0002C1.75 11.4099 2.09723 12.7418 2.70236 13.9279L5.59916 11.7307Z" fill="#FBBC05"/>
<path d="M10.6794 4.63331C12.3559 4.63331 13.4868 5.34303 14.1317 5.93613L16.6516 3.525C15.104 2.11528 13.09 1.25 10.6794 1.25C7.18725 1.25 4.17137 3.21387 2.70312 6.07218L5.59002 8.26944C6.3143 6.15972 8.31825 4.63331 10.6794 4.63331Z" fill="#EB4335"/>
</svg>
