<svg width="19" height="18" viewBox="0 0 19 18" fill="none" xmlns="http://www.w3.org/2000/svg">
<path d="M9.5 18C14.4706 18 18.5 13.9706 18.5 9C18.5 4.02944 14.4706 0 9.5 0C4.52944 0 0.5 4.02944 0.5 9C0.5 13.9706 4.52944 18 9.5 18Z" fill="#F9DB00"/>
<path d="M9.50001 4.60205C7.01522 4.60205 4.99609 6.32379 4.99609 8.44466C5.03914 9.81031 5.82175 11.0468 7.04262 11.6651L6.62001 13.5551L8.65088 12.2207C8.93262 12.2677 9.21435 12.2912 9.50001 12.2912C11.9848 12.2912 14.0039 10.5694 14.0039 8.44857C14.0039 6.3277 11.9887 4.60596 9.50001 4.60596" fill="#3E1918"/>
</svg>
