<svg width="20" height="20" viewBox="0 0 20 20" fill="none" xmlns="http://www.w3.org/2000/svg">
<path d="M17.4987 14.8476V9.64681C17.4987 9.14591 17.4983 8.89532 17.4374 8.66224C17.3834 8.45569 17.2948 8.26022 17.1749 8.08358C17.0396 7.88426 16.8515 7.71897 16.4745 7.38913L11.9749 3.45197C11.275 2.83957 10.9251 2.53352 10.5312 2.41706C10.1842 2.31443 9.81431 2.31443 9.46729 2.41706C9.07375 2.53344 8.72432 2.83919 8.02549 3.45067L3.52439 7.38913C3.14742 7.71898 2.95937 7.88426 2.82407 8.08358C2.70416 8.26022 2.61488 8.45569 2.56091 8.66224C2.5 8.89532 2.5 9.14591 2.5 9.64681V14.8476C2.5 15.7211 2.5 16.1577 2.64271 16.5023C2.833 16.9617 3.19774 17.3271 3.65713 17.5174C4.00167 17.6601 4.43845 17.6601 5.31201 17.6601C6.18558 17.6601 6.62284 17.6601 6.96739 17.5174C7.42677 17.3271 7.79142 16.9617 7.9817 16.5024C8.12442 16.1578 8.12451 15.721 8.12451 14.8475V13.91C8.12451 12.8746 8.96391 12.0352 9.99935 12.0352C11.0348 12.0352 11.8742 12.8746 11.8742 13.91V14.8475C11.8742 15.721 11.8742 16.1578 12.0169 16.5024C12.2072 16.9617 12.5719 17.3271 13.0313 17.5174C13.3759 17.6601 13.8126 17.6601 14.6862 17.6601C15.5598 17.6601 15.997 17.6601 16.3416 17.5174C16.801 17.3271 17.1656 16.9617 17.3559 16.5023C17.4986 16.1577 17.4987 15.7211 17.4987 14.8476Z" stroke="#898989" stroke-linecap="round" stroke-linejoin="round"/>
</svg>
